<svg xmlns="http://www.w3.org/2000/svg" xmlns:xlink="http://www.w3.org/1999/xlink" width="240" zoomAndPan="magnify" viewBox="0 0 180 179.999997" height="240" preserveAspectRatio="xMidYMid meet" version="1.0"><defs><g/><clipPath id="be667cda96"><path d="M 0 0 L 180 0 L 180 109.828125 L 0 109.828125 Z M 0 0 " clip-rule="nonzero"/></clipPath><clipPath id="ca5aca2a41"><path d="M 25.527344 -5 L 154.472656 -5 C 168.570312 -5 180 6.429688 180 20.527344 L 180 84.300781 C 180 98.398438 168.570312 109.828125 154.472656 109.828125 L 25.527344 109.828125 C 11.429688 109.828125 0 98.398438 0 84.300781 L 0 20.527344 C 0 6.429688 11.429688 -5 25.527344 -5 Z M 25.527344 -5 " clip-rule="nonzero"/></clipPath><clipPath id="75fd9a4aad"><path d="M 0 81.042969 L 180 81.042969 L 180 180 L 0 180 Z M 0 81.042969 " clip-rule="nonzero"/></clipPath><clipPath id="c756187be7"><path d="M 25.527344 81.042969 L 154.472656 81.042969 C 168.570312 81.042969 180 92.46875 180 106.570312 L 180 154.472656 C 180 168.570312 168.570312 180 154.472656 180 L 25.527344 180 C 11.429688 180 0 168.570312 0 154.472656 L 0 106.570312 C 0 92.46875 11.429688 81.042969 25.527344 81.042969 Z M 25.527344 81.042969 " clip-rule="nonzero"/></clipPath></defs><path fill="#000000" d="M 144.542969 0 L 35.457031 0 C 15.875 0 0 15.875 0 35.457031 L 0 144.542969 C 0 164.125 15.875 180 35.457031 180 L 144.542969 180 C 164.125 180 180 164.125 180 144.542969 L 180 35.457031 C 180 15.875 164.125 0 144.542969 0 Z M 144.542969 0 " fill-opacity="1" fill-rule="nonzero"/><path fill="#06c167" d="M 86.269531 120.601562 C 86.289062 118.75 85.761719 116.929688 84.746094 115.378906 C 83.734375 113.824219 82.28125 112.609375 80.574219 111.886719 C 78.867188 111.160156 76.984375 110.957031 75.164062 111.308594 C 73.34375 111.65625 71.667969 112.535156 70.347656 113.839844 C 69.027344 115.140625 68.128906 116.808594 67.757812 118.625 C 67.386719 120.441406 67.566406 122.328125 68.269531 124.042969 C 68.972656 125.757812 70.171875 127.222656 71.710938 128.257812 C 73.253906 129.289062 75.066406 129.839844 76.917969 129.839844 C 78.140625 129.855469 79.355469 129.628906 80.488281 129.171875 C 81.625 128.714844 82.65625 128.035156 83.527344 127.175781 C 84.394531 126.316406 85.085938 125.292969 85.558594 124.164062 C 86.027344 123.035156 86.269531 121.824219 86.269531 120.601562 Z M 93.898438 105.507812 L 93.898438 135.8125 L 86.121094 135.8125 L 86.121094 133.082031 C 83.351562 135.324219 79.886719 136.53125 76.324219 136.496094 C 74.199219 136.550781 72.085938 136.183594 70.109375 135.410156 C 68.128906 134.636719 66.328125 133.472656 64.804688 131.992188 C 63.285156 130.507812 62.074219 128.738281 61.246094 126.78125 C 60.421875 124.824219 59.996094 122.722656 59.996094 120.597656 C 59.996094 118.472656 60.421875 116.371094 61.246094 114.414062 C 62.074219 112.457031 63.285156 110.683594 64.804688 109.203125 C 66.328125 107.71875 68.128906 106.558594 70.109375 105.785156 C 72.085938 105.011719 74.199219 104.640625 76.324219 104.699219 C 79.914062 104.683594 83.394531 105.921875 86.167969 108.199219 L 86.167969 105.507812 Z M 119.714844 128.898438 L 113.867188 128.898438 C 112.082031 128.898438 110.9375 128.121094 110.9375 126.515625 L 110.9375 112.332031 L 119.714844 112.332031 L 119.714844 105.507812 L 110.972656 105.507812 L 110.972656 96.863281 L 103.117188 96.863281 L 103.117188 105.507812 L 97.210938 105.507812 L 97.210938 112.363281 L 103.125 112.363281 L 103.125 128.46875 C 103.125 132.535156 106.054688 135.753906 111.332031 135.753906 L 119.75 135.753906 Z M 137.4375 136.527344 C 146.417969 136.527344 151.492188 132.332031 151.492188 126.515625 C 151.492188 122.386719 148.492188 119.300781 142.21875 117.976562 L 135.585938 116.640625 C 131.738281 115.945312 130.523438 115.238281 130.523438 113.84375 C 130.523438 112.015625 132.375 110.894531 135.800781 110.894531 C 139.503906 110.894531 142.21875 111.882812 143.003906 115.238281 L 150.785156 115.238281 C 150.347656 108.941406 145.710938 104.730469 136.292969 104.730469 C 128.167969 104.730469 122.453125 108.03125 122.453125 114.394531 C 122.453125 118.808594 125.597656 121.679688 132.375 123.082031 L 139.796875 124.765625 C 142.714844 125.328125 143.5 126.089844 143.5 127.28125 C 143.5 129.179688 141.253906 130.367188 137.71875 130.367188 C 133.230469 130.367188 130.660156 129.390625 129.660156 126.023438 L 121.804688 126.023438 C 122.925781 132.332031 127.730469 136.527344 137.425781 136.527344 Z M 28.488281 94.765625 L 57.816406 94.765625 L 57.816406 101.757812 L 36.410156 101.757812 L 36.410156 111.78125 L 57.242188 111.78125 L 57.242188 118.515625 L 36.410156 118.515625 L 36.410156 128.617188 L 57.816406 128.617188 L 57.816406 135.621094 L 28.488281 135.621094 Z M 28.488281 94.765625 " fill-opacity="1" fill-rule="nonzero"/><path fill="#f6f0ea" d="M 150.816406 59.273438 L 150.816406 53.773438 L 148.730469 53.773438 C 147.273438 53.714844 145.828125 54.046875 144.542969 54.738281 C 143.257812 55.425781 142.179688 56.445312 141.421875 57.691406 L 141.421875 54.011719 L 135.460938 54.011719 L 135.460938 83.855469 L 141.480469 83.855469 L 141.480469 66.882812 C 141.480469 62.257812 144.339844 59.273438 148.28125 59.273438 Z M 107.539062 66.222656 C 107.960938 64.074219 109.117188 62.140625 110.808594 60.753906 C 112.5 59.363281 114.621094 58.605469 116.808594 58.605469 C 118.996094 58.605469 121.117188 59.363281 122.808594 60.753906 C 124.5 62.140625 125.65625 64.074219 126.078125 66.222656 Z M 116.953125 53.425781 C 114.910156 53.410156 112.878906 53.796875 110.984375 54.566406 C 109.085938 55.339844 107.363281 56.476562 105.910156 57.917969 C 104.457031 59.359375 103.304688 61.074219 102.519531 62.964844 C 101.734375 64.855469 101.328125 66.878906 101.332031 68.925781 C 101.332031 77.828125 108.367188 84.496094 117.492188 84.496094 C 120.027344 84.546875 122.539062 83.996094 124.816406 82.886719 C 127.09375 81.777344 129.078125 80.144531 130.601562 78.121094 L 126.25 74.953125 C 125.257812 76.34375 123.941406 77.46875 122.414062 78.238281 C 120.890625 79.003906 119.199219 79.386719 117.492188 79.355469 C 115.070312 79.386719 112.71875 78.546875 110.867188 76.988281 C 109.011719 75.429688 107.777344 73.257812 107.390625 70.867188 L 132.085938 70.867188 L 132.085938 68.925781 C 132.085938 60.039062 125.652344 53.425781 116.886719 53.425781 Z M 82.5625 79.355469 C 80.519531 79.339844 78.523438 78.722656 76.828125 77.574219 C 75.132812 76.429688 73.816406 74.804688 73.039062 72.914062 C 72.265625 71.019531 72.070312 68.9375 72.480469 66.933594 C 72.886719 64.925781 73.878906 63.085938 75.328125 61.644531 C 76.78125 60.203125 78.628906 59.222656 80.632812 58.828125 C 82.640625 58.433594 84.722656 58.644531 86.613281 59.429688 C 88.5 60.214844 90.113281 61.542969 91.25 63.246094 C 92.386719 64.949219 92.992188 66.949219 92.992188 68.996094 C 92.988281 70.359375 92.714844 71.710938 92.191406 72.972656 C 91.664062 74.230469 90.894531 75.375 89.925781 76.335938 C 88.957031 77.300781 87.808594 78.0625 86.546875 78.578125 C 85.28125 79.097656 83.929688 79.359375 82.5625 79.355469 Z M 66.222656 83.855469 L 72.183594 83.855469 L 72.183594 80.105469 C 73.605469 81.53125 75.300781 82.660156 77.160156 83.429688 C 79.023438 84.203125 81.019531 84.597656 83.035156 84.59375 C 85.117188 84.652344 87.191406 84.289062 89.132812 83.53125 C 91.074219 82.773438 92.84375 81.632812 94.335938 80.179688 C 95.828125 78.726562 97.015625 76.988281 97.828125 75.066406 C 98.636719 73.148438 99.054688 71.082031 99.054688 69 C 99.054688 66.914062 98.636719 64.851562 97.828125 62.933594 C 97.015625 61.011719 95.828125 59.273438 94.335938 57.820312 C 92.84375 56.367188 91.074219 55.226562 89.132812 54.46875 C 87.191406 53.710938 85.117188 53.347656 83.035156 53.402344 C 81.027344 53.402344 79.039062 53.800781 77.1875 54.570312 C 75.335938 55.339844 73.652344 56.46875 72.238281 57.894531 L 72.238281 42.886719 L 66.222656 42.886719 Z M 45.007812 79.050781 C 50.789062 79.050781 55.257812 74.664062 55.257812 68.175781 L 55.257812 42.886719 L 61.519531 42.886719 L 61.519531 83.855469 L 55.3125 83.855469 L 55.3125 80.050781 C 53.871094 81.5 52.152344 82.648438 50.257812 83.417969 C 48.363281 84.191406 46.335938 84.570312 44.289062 84.539062 C 35.3125 84.539062 28.488281 78.152344 28.488281 68.5 L 28.488281 42.886719 L 34.792969 42.886719 L 34.792969 68.175781 C 34.792969 74.785156 39.207031 79.050781 45.054688 79.050781 " fill-opacity="1" fill-rule="nonzero"/><g clip-path="url(#be667cda96)"><g clip-path="url(#ca5aca2a41)"><path fill="#000000" d="M 0 -5 L 180 -5 L 180 109.828125 L 0 109.828125 Z M 0 -5 " fill-opacity="1" fill-rule="nonzero"/></g></g><g fill="#f6f0ea" fill-opacity="1"><g transform="translate(3.339845, 78.999996)"><g><path d="M 38.171875 -49.96875 L 38.171875 -41.703125 L 16.375 -41.703125 L 16.375 -28.46875 L 36.15625 -28.46875 L 36.15625 -20.296875 L 16.375 -20.296875 L 16.375 0 L 6.5 0 L 6.5 -49.96875 Z M 38.171875 -49.96875 "/></g></g></g><g fill="#f6f0ea" fill-opacity="1"><g transform="translate(43.737979, 78.999996)"><g><path d="M 15.65625 0.71875 C 12.257812 0.71875 9.664062 -0.195312 7.875 -2.03125 C 6.09375 -3.863281 5.203125 -6.648438 5.203125 -10.390625 L 5.203125 -52.84375 L 14.65625 -52.84375 L 14.65625 -10.765625 C 14.65625 -8.460938 15.613281 -7.3125 17.53125 -7.3125 C 18.082031 -7.3125 18.664062 -7.40625 19.28125 -7.59375 L 19.75 -7.453125 L 20.609375 -0.171875 C 20.085938 0.0976562 19.394531 0.3125 18.53125 0.46875 C 17.664062 0.632812 16.707031 0.71875 15.65625 0.71875 Z M 15.65625 0.71875 "/></g></g></g><g fill="#f6f0ea" fill-opacity="1"><g transform="translate(65.406691, 78.999996)"><g><path d="M 37.25 -16.71875 L 13.015625 -16.71875 C 13.296875 -13.4375 14.234375 -11.046875 15.828125 -9.546875 C 17.421875 -8.054688 19.597656 -7.3125 22.359375 -7.3125 C 24.515625 -7.3125 26.265625 -7.710938 27.609375 -8.515625 C 28.960938 -9.328125 30.046875 -10.554688 30.859375 -12.203125 L 31.578125 -12.203125 L 37.875 -8.171875 C 36.644531 -5.523438 34.785156 -3.378906 32.296875 -1.734375 C 29.816406 -0.0976562 26.503906 0.71875 22.359375 0.71875 C 18.460938 0.71875 15.09375 -0.0195312 12.25 -1.5 C 9.414062 -2.976562 7.226562 -5.179688 5.6875 -8.109375 C 4.15625 -11.046875 3.390625 -14.617188 3.390625 -18.828125 C 3.390625 -23.117188 4.195312 -26.734375 5.8125 -29.671875 C 7.425781 -32.609375 9.613281 -34.800781 12.375 -36.25 C 15.132812 -37.695312 18.234375 -38.421875 21.671875 -38.421875 C 27.003906 -38.421875 31.085938 -37.003906 33.921875 -34.171875 C 36.753906 -31.347656 38.171875 -27.203125 38.171875 -21.734375 C 38.171875 -19.753906 38.101562 -18.21875 37.96875 -17.125 Z M 29.125 -22.828125 C 29.03125 -25.703125 28.363281 -27.789062 27.125 -29.09375 C 25.882812 -30.40625 24.066406 -31.0625 21.671875 -31.0625 C 16.890625 -31.0625 14.078125 -28.316406 13.234375 -22.828125 Z M 29.125 -22.828125 "/></g></g></g><g fill="#f6f0ea" fill-opacity="1"><g transform="translate(106.385852, 78.999996)"><g><path d="M 37.25 -16.71875 L 13.015625 -16.71875 C 13.296875 -13.4375 14.234375 -11.046875 15.828125 -9.546875 C 17.421875 -8.054688 19.597656 -7.3125 22.359375 -7.3125 C 24.515625 -7.3125 26.265625 -7.710938 27.609375 -8.515625 C 28.960938 -9.328125 30.046875 -10.554688 30.859375 -12.203125 L 31.578125 -12.203125 L 37.875 -8.171875 C 36.644531 -5.523438 34.785156 -3.378906 32.296875 -1.734375 C 29.816406 -0.0976562 26.503906 0.71875 22.359375 0.71875 C 18.460938 0.71875 15.09375 -0.0195312 12.25 -1.5 C 9.414062 -2.976562 7.226562 -5.179688 5.6875 -8.109375 C 4.15625 -11.046875 3.390625 -14.617188 3.390625 -18.828125 C 3.390625 -23.117188 4.195312 -26.734375 5.8125 -29.671875 C 7.425781 -32.609375 9.613281 -34.800781 12.375 -36.25 C 15.132812 -37.695312 18.234375 -38.421875 21.671875 -38.421875 C 27.003906 -38.421875 31.085938 -37.003906 33.921875 -34.171875 C 36.753906 -31.347656 38.171875 -27.203125 38.171875 -21.734375 C 38.171875 -19.753906 38.101562 -18.21875 37.96875 -17.125 Z M 29.125 -22.828125 C 29.03125 -25.703125 28.363281 -27.789062 27.125 -29.09375 C 25.882812 -30.40625 24.066406 -31.0625 21.671875 -31.0625 C 16.890625 -31.0625 14.078125 -28.316406 13.234375 -22.828125 Z M 29.125 -22.828125 "/></g></g></g><g fill="#f6f0ea" fill-opacity="1"><g transform="translate(147.365013, 78.999996)"><g><path d="M 26.015625 -8.984375 L 28.46875 -1.984375 C 27.445312 -1.140625 26.160156 -0.476562 24.609375 0 C 23.054688 0.476562 21.300781 0.71875 19.34375 0.71875 C 15.269531 0.71875 12.171875 -0.390625 10.046875 -2.609375 C 7.929688 -4.835938 6.875 -8.070312 6.875 -12.3125 L 6.875 -30.21875 L 1.125 -30.21875 L 1.125 -37.734375 L 6.875 -37.734375 L 6.875 -45.078125 L 16.34375 -46.625 L 16.34375 -37.734375 L 27.03125 -37.734375 L 27.03125 -30.21875 L 16.34375 -30.21875 L 16.34375 -12.984375 C 16.34375 -11.117188 16.726562 -9.757812 17.5 -8.90625 C 18.269531 -8.050781 19.398438 -7.625 20.890625 -7.625 C 22.566406 -7.625 24.035156 -8.078125 25.296875 -8.984375 Z M 26.015625 -8.984375 "/></g></g></g><g clip-path="url(#75fd9a4aad)"><g clip-path="url(#c756187be7)"><path fill="#000000" d="M 0 81.042969 L 180 81.042969 L 180 180 L 0 180 Z M 0 81.042969 " fill-opacity="1" fill-rule="nonzero"/></g></g><g fill="#06c167" fill-opacity="1"><g transform="translate(6.996095, 152.291043)"><g><path d="M 32.71875 -42.828125 L 32.71875 -35.75 L 14.03125 -35.75 L 14.03125 -24.40625 L 31 -24.40625 L 31 -17.40625 L 14.03125 -17.40625 L 14.03125 0 L 5.5625 0 L 5.5625 -42.828125 Z M 32.71875 -42.828125 "/></g></g></g><g fill="#06c167" fill-opacity="1"><g transform="translate(41.618236, 152.291043)"><g><path d="M 31.9375 -14.328125 L 11.15625 -14.328125 C 11.394531 -11.515625 12.195312 -9.46875 13.5625 -8.1875 C 14.925781 -6.90625 16.789062 -6.265625 19.15625 -6.265625 C 21.007812 -6.265625 22.515625 -6.609375 23.671875 -7.296875 C 24.828125 -7.992188 25.753906 -9.046875 26.453125 -10.453125 L 27.078125 -10.453125 L 32.46875 -7 C 31.40625 -4.738281 29.8125 -2.90625 27.6875 -1.5 C 25.5625 -0.09375 22.71875 0.609375 19.15625 0.609375 C 15.820312 0.609375 12.9375 -0.0195312 10.5 -1.28125 C 8.070312 -2.550781 6.195312 -4.441406 4.875 -6.953125 C 3.5625 -9.460938 2.90625 -12.523438 2.90625 -16.140625 C 2.90625 -19.816406 3.597656 -22.910156 4.984375 -25.421875 C 6.367188 -27.941406 8.242188 -29.820312 10.609375 -31.0625 C 12.972656 -32.3125 15.628906 -32.9375 18.578125 -32.9375 C 23.148438 -32.9375 26.648438 -31.722656 29.078125 -29.296875 C 31.503906 -26.878906 32.71875 -23.328125 32.71875 -18.640625 C 32.71875 -16.929688 32.660156 -15.609375 32.546875 -14.671875 Z M 24.96875 -19.578125 C 24.882812 -22.035156 24.3125 -23.820312 23.25 -24.9375 C 22.1875 -26.0625 20.628906 -26.625 18.578125 -26.625 C 14.472656 -26.625 12.0625 -24.273438 11.34375 -19.578125 Z M 24.96875 -19.578125 "/></g></g></g><g fill="#06c167" fill-opacity="1"><g transform="translate(76.738331, 152.291043)"><g><path d="M 22.296875 -7.703125 L 24.40625 -1.703125 C 23.53125 -0.972656 22.425781 -0.40625 21.09375 0 C 19.769531 0.40625 18.265625 0.609375 16.578125 0.609375 C 13.085938 0.609375 10.429688 -0.335938 8.609375 -2.234375 C 6.796875 -4.140625 5.890625 -6.910156 5.890625 -10.546875 L 5.890625 -25.90625 L 0.96875 -25.90625 L 0.96875 -32.34375 L 5.890625 -32.34375 L 5.890625 -38.640625 L 14 -39.96875 L 14 -32.34375 L 23.171875 -32.34375 L 23.171875 -25.90625 L 14 -25.90625 L 14 -11.140625 C 14 -9.535156 14.332031 -8.363281 15 -7.625 C 15.664062 -6.894531 16.632812 -6.53125 17.90625 -6.53125 C 19.34375 -6.53125 20.601562 -6.921875 21.6875 -7.703125 Z M 22.296875 -7.703125 "/></g></g></g><g fill="#06c167" fill-opacity="1"><g transform="translate(101.840854, 152.291043)"><g><path d="M 18.84375 0.609375 C 15.71875 0.609375 12.953125 -0.0351562 10.546875 -1.328125 C 8.140625 -2.628906 6.265625 -4.539062 4.921875 -7.0625 C 3.578125 -9.582031 2.90625 -12.609375 2.90625 -16.140625 C 2.90625 -19.691406 3.578125 -22.726562 4.921875 -25.25 C 6.265625 -27.769531 8.128906 -29.679688 10.515625 -30.984375 C 12.898438 -32.285156 15.625 -32.9375 18.6875 -32.9375 C 25.507812 -32.9375 29.875 -30.460938 31.78125 -25.515625 L 26.21875 -21.53125 L 25.609375 -21.53125 C 24.941406 -23.050781 24.078125 -24.179688 23.015625 -24.921875 C 21.953125 -25.671875 20.507812 -26.046875 18.6875 -26.046875 C 16.34375 -26.046875 14.515625 -25.234375 13.203125 -23.609375 C 11.898438 -21.992188 11.25 -19.503906 11.25 -16.140625 C 11.25 -12.816406 11.910156 -10.335938 13.234375 -8.703125 C 14.566406 -7.078125 16.4375 -6.265625 18.84375 -6.265625 C 20.59375 -6.265625 22.078125 -6.738281 23.296875 -7.6875 C 24.523438 -8.632812 25.398438 -10 25.921875 -11.78125 L 26.546875 -11.84375 L 32.3125 -8.671875 C 31.488281 -5.941406 29.96875 -3.710938 27.75 -1.984375 C 25.539062 -0.253906 22.570312 0.609375 18.84375 0.609375 Z M 18.84375 0.609375 "/></g></g></g><g fill="#06c167" fill-opacity="1"><g transform="translate(135.144899, 152.291043)"><g><path d="M 4.65625 0 L 4.65625 -45.296875 L 12.78125 -45.296875 L 12.78125 -28.09375 L 13.390625 -27.984375 C 14.460938 -29.566406 15.78125 -30.785156 17.34375 -31.640625 C 18.90625 -32.503906 20.789062 -32.9375 23 -32.9375 C 30.125 -32.9375 33.6875 -28.890625 33.6875 -20.796875 L 33.6875 0 L 25.578125 0 L 25.578125 -19.78125 C 25.578125 -21.988281 25.132812 -23.585938 24.25 -24.578125 C 23.375 -25.578125 22.007812 -26.078125 20.15625 -26.078125 C 17.894531 -26.078125 16.097656 -25.316406 14.765625 -23.796875 C 13.441406 -22.285156 12.78125 -19.929688 12.78125 -16.734375 L 12.78125 0 Z M 4.65625 0 "/></g></g></g></svg>